PathFileType  4	(X/Y/Z) C:\Users\antoi\Documents\MyRepositories\mobilecap\ResultsAnalysis
DataRate	CameraRate	NumFrames	NumMarkers	Units	OrigDataRate	OrigDataStartFrame	OrigNumFrames
100.0	100.0	5	51	mm	100.0	253	289
Frame#	Time	r_knee			r_shank_antsup			r_ankle			r_calc			r_5meta			r_toe			L_knee			L_shank_antsup			L_ankle			L_calc			L_5meta			L_toe			r_sh2			r_sh3			r_sh4			L_sh2			L_sh3			r_thigh1			r_thigh2			r_thigh3			r_thigh4			r_thigh5			L_thigh1			L_thigh2			L_thigh3			L_thigh4			r.ASIS			r.PSIS			L.ASIS			L.PSIS			C7			R_Shoulder			L_Shoulder			R_Sternum			L_Sternum			R_humerus			R_elbow_med			R_elbow_lat			R_forearm			R_wrist_radius			R_wrist_ulna			L_humerus			L_elbow_med			L_elbow_lat			L_forearm			L_wrist_radius			L_wrist_ulna			R_HJC			L_HJC			R_HJC_reg			L_HJC_reg			
		X1	Y1	Z1	X2	Y2	Z2	X3	Y3	Z3	X4	Y4	Z4	X5	Y5	Z5	X6	Y6	Z6	X7	Y7	Z7	X8	Y8	Z8	X9	Y9	Z9	X10	Y10	Z10	X11	Y11	Z11	X12	Y12	Z12	X13	Y13	Z13	X14	Y14	Z14	X15	Y15	Z15	X16	Y16	Z16	X17	Y17	Z17	X18	Y18	Z18	X19	Y19	Z19	X20	Y20	Z20	X21	Y21	Z21	X22	Y22	Z22	X23	Y23	Z23	X24	Y24	Z24	X25	Y25	Z25	X26	Y26	Z26	X27	Y27	Z27	X28	Y28	Z28	X29	Y29	Z29	X30	Y30	Z30	X31	Y31	Z31	X32	Y32	Z32	X33	Y33	Z33	X34	Y34	Z34	X35	Y35	Z35	X36	Y36	Z36	X37	Y37	Z37	X38	Y38	Z38	X39	Y39	Z39	X40	Y40	Z40	X41	Y41	Z41	X42	Y42	Z42	X43	Y43	Z43	X44	Y44	Z44	X45	Y45	Z45	X46	Y46	Z46	X47	Y47	Z47	X48	Y48	Z48	X49	Y49	Z49	X50	Y50	Z50	X51	Y51	Z51	

253	2.52000000	-230.27504	962.27224	-425.36466	-214.87434	881.74749	-414.97809	-293.30100	527.83353	-446.00546	-362.29886	515.71333	-502.76129	-201.70624	392.54437	-424.93187	-152.11476	410.43352	-474.96899	-249.44996	961.25526	-717.30313	-228.04629	844.73833	-736.38274	-286.25838	513.70148	-702.49634	-353.33001	492.55476	-646.69593	-168.10809	387.20721	-735.13419	-125.59579	419.35928	-685.53339	-226.53686	769.25713	-408.35988	-290.91513	890.10532	-398.98377	-309.27295	777.24292	-404.36913	-317.30169	857.23680	-730.77074	-320.05208	736.46708	-730.42016	-145.15584	1279.77330	-388.53376	-139.03714	1170.12734	-403.54151	-193.12135	1139.21948	-379.17323	-259.02030	1269.30840	-386.59092	-245.72553	1152.70715	-390.95462	-170.11678	1281.27771	-753.04196	-165.64767	1143.03188	-748.23636	-287.96490	1276.76421	-739.81012	-275.45552	1138.11354	-740.75271	-112.82357	1480.07408	-444.10102	-298.47097	1545.43116	-511.10961	-130.83815	1472.03156	-703.80458	-305.75808	1540.90942	-616.20279	-302.76236	2035.90005	-562.73941	-244.71702	2026.31937	-403.50627	-251.47065	2023.45067	-718.46717	-141.15049	1989.92831	-535.59377	-146.62208	1985.88691	-599.66629	-313.86011	1823.55327	-242.34450	-334.34304	1695.01841	-272.14131	-329.43365	1747.96079	-192.15291	-168.04143	1740.54239	-207.08144	-59.47096	1736.64948	-242.78136	-64.68013	1707.66749	-208.56708	-353.02173	1837.81093	-869.07637	-431.54327	1738.51848	-830.38359	-398.28605	1768.32709	-903.59978	-249.51670	1673.11072	-890.92603	-163.81982	1640.48573	-855.17854	-176.04730	1609.66278	-879.95597	-206.41182	1414.34230	-443.16817	-220.05965	1406.93392	-673.01188	-199.12694	1416.85817	-472.48755	-211.00875	1409.48931	-643.81659	
254	2.53000000	-228.01757	960.72482	-425.09652	-212.58328	880.00348	-414.06875	-293.37390	526.52917	-443.73114	-363.40389	515.07406	-499.21523	-202.50831	390.71593	-423.93462	-153.65002	408.14207	-475.27181	-248.96504	959.90030	-718.28769	-227.37383	843.21982	-737.41956	-285.52072	512.15369	-703.99518	-352.27703	490.83239	-648.07704	-168.07108	384.42541	-734.43593	-124.58221	417.98912	-687.66885	-224.73591	767.55734	-407.35192	-288.31389	888.99348	-397.30041	-307.84479	776.09962	-402.26363	-316.67385	855.86265	-731.40821	-319.48961	734.95109	-731.30121	-143.95106	1278.56277	-388.97831	-137.29233	1168.91715	-403.84472	-191.09989	1137.81481	-379.06356	-257.77043	1267.37458	-385.56689	-243.95656	1150.87624	-390.38318	-171.70264	1280.34643	-753.80437	-167.46097	1142.61714	-750.50727	-289.35572	1275.09462	-739.19425	-276.13208	1136.59068	-740.78521	-113.02109	1478.67309	-444.81376	-299.29501	1542.37216	-510.44017	-132.63271	1470.67439	-704.46643	-307.22669	1538.42612	-615.15525	-302.83869	2034.49977	-562.75401	-242.88561	2025.73043	-403.31628	-251.51022	2023.14761	-718.73815	-140.77843	1988.54821	-535.79831	-146.26197	1984.41447	-599.43151	-317.98529	1823.83610	-245.08753	-342.84993	1696.36496	-277.38562	-336.12574	1747.45077	-196.06601	-175.04212	1730.99249	-210.74480	-66.76482	1721.32066	-246.26662	-73.63625	1692.31347	-212.56320	-354.01968	1833.79450	-863.19973	-431.96416	1735.84289	-820.60621	-399.46622	1763.04321	-895.19569	-252.19080	1664.38738	-881.53430	-166.84205	1630.44039	-845.63640	-180.14788	1599.29407	-869.59404	-205.90405	1412.09994	-443.28907	-221.14102	1404.97752	-673.04241	-198.78235	1414.05542	-473.00115	-211.75823	1407.60079	-644.32974	
255	2.54000000	-225.81438	958.42910	-424.49004	-210.22294	877.34337	-413.02218	-293.13203	524.21367	-441.03586	-364.26107	513.35734	-495.34173	-202.93436	388.16585	-422.31617	-154.90847	404.83764	-475.20513	-248.72159	957.48266	-719.30055	-226.92899	840.75279	-738.86451	-284.71359	509.54213	-706.21051	-351.19225	487.99106	-649.71031	-167.90178	380.37358	-733.66689	-123.38023	415.49782	-689.89138	-222.81880	764.84135	-406.18562	-285.43396	886.83968	-395.83260	-306.17651	773.79303	-399.98542	-316.19953	853.35369	-732.14646	-318.97136	732.53079	-732.33824	-142.79425	1276.23362	-389.66560	-135.82991	1166.56460	-404.31383	-189.13611	1135.32721	-378.97655	-256.55710	1264.54403	-384.60376	-242.30715	1148.09360	-389.75267	-173.09034	1278.23502	-754.24103	-168.31516	1140.48594	-751.46648	-290.59629	1272.37196	-738.14969	-276.91320	1134.04389	-740.72231	-113.21664	1476.06896	-445.45370	-300.15250	1538.56884	-509.39046	-133.98571	1467.95467	-704.91979	-308.43607	1535.40743	-614.31759	-302.66634	2032.39157	-562.73471	-241.19770	2024.29637	-403.30848	-251.50595	2021.68517	-718.90272	-140.46201	1986.04995	-536.09117	-146.07475	1981.91917	-599.38816	-320.78830	1823.18922	-247.04903	-351.05174	1697.73782	-281.63463	-342.00136	1746.56861	-199.28345	-181.85369	1721.43512	-214.10771	-74.24071	1706.12160	-249.87812	-82.70281	1677.28586	-216.50583	-354.93056	1829.36893	-857.64149	-432.28996	1732.93123	-811.59730	-400.46676	1757.37038	-887.20472	-254.72883	1655.44871	-872.37998	-169.65309	1620.53129	-836.48320	-184.07008	1589.00137	-859.59269	-205.65926	1408.90811	-443.27966	-222.22697	1402.06301	-672.94938	-198.65149	1409.90123	-473.81772	-212.17076	1404.73586	-645.08527	
256	2.55000000	-223.45266	955.13186	-423.54492	-207.85203	873.73513	-412.05744	-292.51078	521.00404	-438.03369	-364.73810	510.48135	-491.49378	-202.87899	384.49537	-420.82349	-155.65287	400.58318	-474.74798	-248.78330	953.98784	-720.24340	-226.82277	837.35043	-740.37241	-283.70886	505.86874	-708.81542	-350.05471	484.02764	-651.67222	-166.60707	377.31515	-737.03177	-122.10097	412.29566	-692.75736	-220.79935	761.24744	-404.80427	-282.63091	883.54162	-394.09676	-304.05758	770.55747	-397.44769	-316.04320	849.72279	-733.03568	-318.54187	729.05704	-733.63344	-141.91393	1272.86040	-390.20168	-134.79022	1163.31753	-404.61736	-187.41689	1131.72660	-378.74254	-255.59597	1260.78821	-383.77925	-240.81334	1144.40189	-388.93001	-174.34794	1275.01448	-754.57600	-168.89104	1137.14915	-752.02296	-291.69674	1268.71390	-737.51773	-277.65248	1130.44354	-740.71922	-113.39577	1472.32980	-445.98118	-300.83821	1534.16647	-508.26400	-135.31687	1463.89256	-705.16807	-309.35395	1531.84114	-613.50132	-302.18794	2029.49104	-562.92779	-239.60451	2021.98636	-403.35647	-251.36636	2019.05524	-718.73181	-140.19794	1982.48239	-536.33424	-146.10410	1978.36838	-599.68847	-322.51792	1821.50442	-248.37928	-358.72177	1698.66982	-284.95805	-347.08382	1745.13471	-201.76724	-188.39618	1711.86754	-217.30359	-81.84816	1691.08279	-253.61208	-91.65163	1662.55310	-220.25641	-355.65264	1824.27449	-852.39180	-432.67558	1729.43770	-803.40558	-401.38110	1751.21308	-879.89328	-257.17117	1646.42132	-863.58930	-172.68927	1610.69590	-827.87493	-187.72531	1579.04569	-850.15091	-205.67208	1404.89962	-443.09068	-223.52115	1398.17389	-672.66797	-198.78868	1404.69723	-474.63969	-212.63926	1400.91351	-645.80250	
257	2.56000000	-221.11605	950.66814	-422.45876	-205.66401	869.14903	-411.21442	-291.38396	516.75944	-435.00957	-364.60832	506.42518	-487.52735	-202.22612	379.55733	-419.57019	-155.71943	395.39192	-474.00448	-249.10181	949.46046	-721.09311	-226.93211	833.01826	-741.68916	-282.49626	501.23254	-711.39466	-348.74768	479.06617	-653.94847	-164.12778	375.13368	-743.18477	-120.82562	408.28383	-695.83227	-218.70788	756.81195	-403.24089	-280.18990	879.07143	-391.99897	-301.67640	766.30345	-394.76603	-316.19929	845.07429	-734.03373	-318.26480	724.33758	-734.99216	-141.34157	1268.54466	-390.37403	-133.95769	1159.15755	-404.71247	-186.07652	1127.12711	-378.28819	-254.97090	1256.07671	-383.05598	-239.65204	1139.70609	-387.98460	-175.52022	1270.72713	-754.96771	-169.66838	1132.86033	-752.63423	-292.73892	1264.17417	-737.35022	-278.34863	1125.79242	-740.95931	-113.58919	1467.52639	-446.20676	-301.21032	1529.05551	-507.59726	-136.90661	1459.17082	-705.14316	-309.98518	1527.58259	-612.64131	-301.64046	2025.77071	-563.06071	-237.94538	2018.77234	-403.40222	-251.01063	2015.22567	-718.42847	-139.95694	1977.93107	-536.53237	-146.21954	1973.71767	-600.06943	-323.53576	1818.91912	-249.20095	-365.68632	1698.81534	-287.48061	-351.42879	1743.06490	-203.48705	-194.62723	1702.26846	-220.35326	-89.52985	1676.09179	-257.42363	-100.42702	1648.08348	-223.73748	-356.16094	1818.25600	-847.51773	-433.27237	1725.07279	-795.87819	-402.32852	1744.43767	-873.24215	-259.54367	1637.53832	-855.55979	-175.72003	1601.11876	-820.17162	-191.01426	1569.53599	-841.32566	-205.87360	1400.01733	-442.91746	-224.82442	1393.58428	-672.41498	-199.08153	1398.80076	-475.13230	-213.37443	1396.40866	-646.19716	
